<?xml version="1.0" encoding="iso-8859-1"?>
<!-- Generator: Adobe Illustrator 19.0.0, SVG Export Plug-In . SVG Version: 6.00 Build 0)  -->
<svg version="1.1" id="Capa_1" xmlns="http://www.w3.org/2000/svg" xmlns:xlink="http://www.w3.org/1999/xlink" x="0px" y="0px"
	 viewBox="0 0 480 480" style="enable-background:new 0 0 480 480;" xml:space="preserve">
<path style="fill:#F0FAFF;" d="M233.214,449.846L296,299.16v-99.89c-4.659-1.648-8.017-6.047-8.017-11.271s3.358-9.622,8.017-11.271
	V120l-64-64H8v416h239.983C236.566,472,228.823,460.385,233.214,449.846z"/>
<path style="fill:#97DAF7;" d="M470.752,449.846L399.983,280v-8v-72h4c6.627,0,12-5.373,12-12s-5.373-12-12-12h-4h-96h-4
	c-6.627,0-12,5.373-12,12s5.373,12,12,12h4v80l-70.769,169.846C228.823,460.385,236.566,472,247.983,472h208
	C467.401,472,475.144,460.385,470.752,449.846z"/>
<g>
	<circle style="fill:#E85D25;" cx="392" cy="120" r="24"/>
	<circle style="fill:#E85D25;" cx="392" cy="32" r="24"/>
	<circle style="fill:#E85D25;" cx="304" cy="32" r="24"/>
</g>
<polygon style="fill:#F0FAFF;" points="232,120 296,120 232,56 "/>
<g>
	<rect x="40" y="320" style="fill:#FFA442;" width="136" height="112"/>
	<path style="fill:#FFA442;" d="M470.752,449.846L436.65,368H267.317l-34.103,81.846C228.823,460.385,236.566,472,247.983,472h208
		C467.401,472,475.144,460.385,470.752,449.846z"/>
</g>
<path d="M8,480h239.984h208c8.039,0,15.508-3.996,19.969-10.684c4.461-6.691,5.273-15.121,2.18-22.547l-70.148-168.371v-70.801
	c9.117-1.859,16-9.938,16-19.598c0-11.027-8.969-20-20-20h-104c-11.031,0-20,8.973-20,20c0,9.66,6.883,17.738,16,19.598v70.801
	L225.828,446.77c-2.319,5.566-2.442,11.692-0.48,17.23H16V64h208v56c0,4.418,3.578,8,8,8h56v24h16v-32h-0.073
	c-0.001-2.079-0.742-4.127-2.271-5.656l-64-64c-1.53-1.533-3.576-2.27-5.656-2.27V48H8c-4.422,0-8,3.582-8,8v416
	C0,476.418,3.578,480,8,480z M311.367,283.078c0.406-0.977,0.617-2.023,0.617-3.078v-80c0-4.418-3.578-8-8-8h-4
	c-2.203,0-4-1.793-4-4s1.797-4,4-4h104c2.203,0,4,1.793,4,4s-1.797,4-4,4h-4h-72v16h64v56H384
	c-19.516,0-35.805,14.043-39.305,32.555C321.68,300.082,304,320.016,304,344h16c0-17.645,14.352-32,32-32c4.422,0,8-3.582,8-8
	c0-13.234,10.766-24,24-24h7.984c0,1.055,0.211,2.102,0.617,3.078L424.65,360H279.315L311.367,283.078z M241.32,460.438
	c-1.508-2.262-1.773-5-0.727-7.512L272.648,376h158.669l32.05,76.926c1.047,2.512,0.781,5.25-0.727,7.512
	c-1.516,2.266-3.938,3.563-6.656,3.563h-208C245.258,464,242.836,462.703,241.32,460.438z M240,75.313L276.688,112H240V75.313z"/>
<rect x="400" y="392" width="16" height="16"/>
<rect x="352" y="416" width="16" height="16"/>
<rect x="288" y="400" width="16" height="16"/>
<path d="M424,32c0-17.645-14.352-32-32-32c-14.87,0-27.287,10.238-30.864,24h-26.272C331.287,10.238,318.87,0,304,0
	c-17.648,0-32,14.355-32,32s14.352,32,32,32c14.87,0,27.287-10.238,30.864-24h26.272c2.909,11.19,11.672,19.955,22.864,22.864
	v26.271c-13.764,3.578-24,15.998-24,30.864c0,17.645,14.352,32,32,32s32-14.355,32-32c0-14.867-10.236-27.287-24-30.864V62.864
	C413.764,59.287,424,46.867,424,32z M304,48c-8.82,0-16-7.176-16-16s7.18-16,16-16s16,7.176,16,16S312.82,48,304,48z M376,32
	c0-8.824,7.18-16,16-16s16,7.176,16,16s-7.18,16-16,16S376,40.824,376,32z M408,120c0,8.824-7.18,16-16,16s-16-7.176-16-16
	s7.18-16,16-16S408,111.176,408,120z"/>
<rect x="448" y="104" width="16" height="16"/>
<rect x="320" y="80" width="16" height="16"/>
<rect x="464" width="16" height="16"/>
<rect x="64" y="88" width="144" height="16"/>
<rect x="32" y="144" width="232" height="16"/>
<rect x="32" y="176" width="96" height="16"/>
<rect x="152" y="176" width="112" height="16"/>
<rect x="32" y="208" width="56" height="16"/>
<rect x="104" y="208" width="80" height="16"/>
<rect x="200" y="208" width="64" height="16"/>
<path d="M32,432c0,4.418,3.578,8,8,8h136c4.422,0,8-3.582,8-8V320c0-4.418-3.578-8-8-8H40c-4.422,0-8,3.582-8,8V432z M48,328h120v96
	H48V328z"/>
<rect x="64" y="376" width="16" height="40"/>
<rect x="88" y="392" width="16" height="24"/>
<rect x="112" y="352" width="16" height="64"/>
<rect x="136" y="336" width="16" height="80"/>
<rect x="32" y="240" width="232" height="16"/>
<rect x="32" y="272" width="96" height="16"/>
<rect x="152" y="272" width="112" height="16"/>
<g>
</g>
<g>
</g>
<g>
</g>
<g>
</g>
<g>
</g>
<g>
</g>
<g>
</g>
<g>
</g>
<g>
</g>
<g>
</g>
<g>
</g>
<g>
</g>
<g>
</g>
<g>
</g>
<g>
</g>
</svg>
