<?xml version="1.0" encoding="iso-8859-1"?>
<!-- Generator: Adobe Illustrator 19.0.0, SVG Export Plug-In . SVG Version: 6.00 Build 0)  -->
<svg version="1.1" id="Capa_1" xmlns="http://www.w3.org/2000/svg" xmlns:xlink="http://www.w3.org/1999/xlink" x="0px" y="0px"
	 viewBox="0 0 512 512" style="enable-background:new 0 0 512 512;" xml:space="preserve">
<path style="fill:#FEDA44;" d="M452.927,319.056H59.073c0-108.76,88.167-196.927,196.927-196.927S452.927,210.296,452.927,319.056z"
	/>
<path style="fill:#FECE00;" d="M395.713,319.056H116.287c0-77.162,62.552-139.713,139.713-139.713S395.713,241.894,395.713,319.056z
	"/>
<path d="M460.275,311.556C456.313,202.297,366.21,114.629,256,114.629c-110.209,0-200.313,87.668-204.275,196.927H0v15h51.573
	h408.854H512v-15H460.275z M66.72,311.556C70.671,210.568,154.062,129.629,256,129.629s185.328,80.939,189.28,181.927H66.72z"/>
<rect x="35.32" y="353.391" width="441.36" height="15"/>
<rect x="77.876" y="395.221" width="356.25" height="15"/>
<rect x="122.41" y="437.051" width="267.18" height="15"/>
<rect x="248.5" y="59.95" width="15" height="44.19"/>
<rect x="416.07" y="129.377" transform="matrix(-0.7071 -0.7071 0.7071 -0.7071 615.9717 558.0876)" width="15" height="44.19"/>
<rect x="66.309" y="143.959" transform="matrix(-0.7071 -0.7071 0.7071 -0.7071 43.817 321.0677)" width="44.19" height="15"/>
<rect x="313.198" y="68.952" transform="matrix(-0.962 -0.273 0.273 -0.962 604.3569 266.1866)" width="14.999" height="44.189"/>
<rect x="5.891" y="246.856" transform="matrix(-0.962 -0.273 0.273 -0.962 -14.5311 506.6903)" width="44.189" height="15"/>
<rect x="440.875" y="196.055" transform="matrix(0.8733 -0.4872 0.4872 0.8733 -40.5098 251.3489)" width="44.19" height="15"/>
<rect x="118.419" y="104.586" transform="matrix(-0.4872 -0.8733 0.8733 -0.4872 111.0881 289.4045)" width="44.19" height="15"/>
<rect x="368.948" y="92.835" transform="matrix(-0.8612 -0.5082 0.5082 -0.8612 642.2449 405.2264)" width="14.998" height="44.189"/>
<rect x="29.787" y="191.095" transform="matrix(-0.8612 -0.5082 0.5082 -0.8612 -4.3667 395.9952)" width="44.189" height="14.998"/>
<rect x="463.431" y="252.394" transform="matrix(0.9683 -0.2496 0.2496 0.9683 -49.5038 129.4194)" width="44.188" height="14.999"/>
<rect x="174.747" y="82.038" transform="matrix(-0.2496 -0.9683 0.9683 -0.2496 159.2722 302.4972)" width="44.188" height="14.999"/>
<g>
	<path style="fill:#FFFFFF;" d="M407.354,266.746c-3.438-9.946-7.89-19.599-13.232-28.689l12.932-7.601
		c5.846,9.945,10.717,20.507,14.479,31.391L407.354,266.746z"/>
	<path style="fill:#FFFFFF;" d="M384.199,223.15c-17.285-23.066-40.437-41.067-66.952-52.056l5.742-13.857
		c29,12.018,54.316,31.7,73.214,56.918L384.199,223.15z"/>
</g>
<g>
</g>
<g>
</g>
<g>
</g>
<g>
</g>
<g>
</g>
<g>
</g>
<g>
</g>
<g>
</g>
<g>
</g>
<g>
</g>
<g>
</g>
<g>
</g>
<g>
</g>
<g>
</g>
<g>
</g>
</svg>
